<?xml version="1.0" encoding="UTF-8"?>
<!DOCTYPE svg PUBLIC "-//W3C//DTD SVG 1.1//EN" "http://www.w3.org/Graphics/SVG/1.1/DTD/svg11.dtd">
<!-- Creator: CorelDRAW Home & Student X7 -->
<svg xmlns="http://www.w3.org/2000/svg" xml:space="preserve" width="121.326mm" height="121.798mm" version="1.1" style="shape-rendering:geometricPrecision; text-rendering:geometricPrecision; image-rendering:optimizeQuality; fill-rule:evenodd; clip-rule:evenodd"
viewBox="0 0 9887 9925"
 xmlns:xlink="http://www.w3.org/1999/xlink">
 <defs>
  <style type="text/css">
   <![CDATA[
    .str0 {stroke:#E8AD55;stroke-width:40.7457}
    .str1 {stroke:#E8AD55;stroke-width:40.7457;stroke-linejoin:round}
    .fil1 {fill:none}
    .fil0 {fill:#FFEB7A}
   ]]>
  </style>
 </defs>
 <g id="Layer_x0020_1">
  <metadata id="CorelCorpID_0Corel-Layer"/>
  <path class="fil0 str0" d="M4922 20c2447,29 4959,1952 4945,4916 -15,2965 -2397,4873 -4945,4873 -2548,0 -4902,-1951 -4902,-4873 0,-2921 2455,-4944 4902,-4916zm0 377c2507,0 4539,2033 4539,4539 0,2507 -2032,4539 -4539,4539 -2507,0 -4539,-2032 -4539,-4539 0,-2506 2032,-4539 4539,-4539z"/>
  <path class="fil1" d="M2231 8592c753,555 1684,883 2691,883 2507,0 4539,-2032 4539,-4539 0,-2506 -2032,-4539 -4539,-4539 -2507,0 -4539,2033 -4539,4539 0,869 244,1681 668,2372 97,174 229,324 322,458 62,78 127,154 194,227 72,54 135,117 186,193 85,82 173,162 264,238 105,85 206,160 214,168z"/>
  <g id="_410984040">
   <path class="fil0 str1" d="M2181 8804c-64,-612 -378,-838 -371,-973 -194,510 365,878 371,973z"/>
   <path class="fil0 str1" d="M1388 7804c86,267 317,527 485,695 124,-304 -199,-637 -485,-695z"/>
   <path class="fil0 str1" d="M1563 8531c264,-165 516,-119 783,110 -150,157 -591,66 -783,-110z"/>
   <path class="fil0 str1" d="M1557 8664c168,-72 689,-38 820,144 -322,265 -516,3 -820,-144z"/>
   <path class="fil0 str1" d="M1969 8498c-312,-394 -474,-161 -635,-250 219,290 270,244 635,250z"/>
   <path class="fil0 str1" d="M3343 9397c-210,-32 -484,-519 -512,-700 364,113 649,292 512,700z"/>
   <path class="fil0 str1" d="M1772 8979c234,219 702,367 994,187 -33,-434 -712,-169 -994,-187z"/>
   <path class="fil0 str1" d="M3429 9504c-593,-482 -554,-213 -1159,-252 442,413 1021,211 1159,252z"/>
   <path class="fil0 str1" d="M3105 9688c345,87 895,263 1053,-228 -506,-75 -677,-253 -1053,228z"/>
   <path class="fil0 str1" d="M1041 7543c-422,-150 -373,-191 -521,-383 194,28 498,155 521,383z"/>
   <path class="fil0 str1" d="M2114 8548c154,197 306,467 615,406 -104,-272 -336,-381 -615,-406z"/>
   <path class="fil0 str1" d="M2150 8896c327,365 607,513 1099,454 -57,-436 -919,-405 -1099,-454z"/>
   <path class="fil0 str1" d="M3615 9439c31,-341 -606,-266 -768,-268 249,131 312,505 768,268z"/>
   <path class="fil0 str1" d="M4882 9756c-654,-765 -712,-446 -1222,-787 89,242 724,921 1222,787z"/>
   <path class="fil0 str1" d="M908 7214c17,37 87,363 214,511 141,-215 -95,-433 -214,-511z"/>
   <path class="fil0 str1" d="M794 7124c86,261 445,448 348,677 -317,-99 -429,-414 -348,-677z"/>
   <path class="fil0 str1" d="M1184 7506c-43,103 -59,359 111,435 69,-169 -15,-288 -111,-435z"/>
   <path class="fil0 str1" d="M1481 8044c18,-278 -392,-196 -658,-336 82,222 443,372 658,336z"/>
   <path class="fil0 str1" d="M1237 7780c113,69 447,356 414,487l-13 -1c-363,2 -323,-261 -401,-486z"/>
   <path class="fil0 str1" d="M2895 9146c-100,6 -231,-84 -272,-179 -26,-62 -92,-213 -164,-211 273,-43 469,102 436,390z"/>
   <path class="fil0 str1" d="M4066 9555c-163,-415 -845,-719 -843,-717 57,352 507,677 843,717z"/>
   <path class="fil0 str1" d="M3661 9597c363,-186 997,-109 1261,212 -330,268 -916,-97 -1261,-212z"/>
  </g>
  <g id="_573364112">
   <path class="fil0 str1" d="M7663 8804c64,-612 378,-838 371,-973 194,510 -365,878 -371,973z"/>
   <path class="fil0 str1" d="M8456 7804c-86,267 -317,527 -485,695 -124,-304 199,-637 485,-695z"/>
   <path class="fil0 str1" d="M8281 8531c-264,-165 -516,-119 -783,110 150,157 590,66 783,-110z"/>
   <path class="fil0 str1" d="M8287 8664c-168,-72 -689,-38 -820,144 322,265 516,3 820,-144z"/>
   <path class="fil0 str1" d="M7875 8498c312,-394 474,-161 635,-250 -219,290 -270,244 -635,250z"/>
   <path class="fil0 str1" d="M6501 9397c210,-32 484,-519 511,-700 -363,113 -648,292 -511,700z"/>
   <path class="fil0 str1" d="M8071 8979c-233,219 -701,367 -993,187 33,-434 711,-169 993,-187z"/>
   <path class="fil0 str1" d="M6415 9504c592,-482 554,-213 1159,-252 -442,413 -1021,211 -1159,252z"/>
   <path class="fil0 str1" d="M6739 9688c-345,87 -895,263 -1053,-228 506,-75 677,-253 1053,228z"/>
   <path class="fil0 str1" d="M8802 7543c423,-150 374,-191 522,-383 -194,28 -498,155 -522,383z"/>
   <path class="fil0 str1" d="M7730 8548c-154,197 -306,467 -615,406 104,-272 336,-381 615,-406z"/>
   <path class="fil0 str1" d="M7694 8896c-327,365 -607,513 -1099,454 57,-436 919,-405 1099,-454z"/>
   <path class="fil0 str1" d="M6229 9439c-31,-341 606,-266 768,-268 -249,131 -312,505 -768,268z"/>
   <path class="fil0 str1" d="M4962 9756c654,-765 712,-446 1221,-787 -88,242 -723,921 -1221,787z"/>
   <path class="fil0 str1" d="M8936 7214c-17,37 -87,363 -214,511 -141,-215 95,-433 214,-511z"/>
   <path class="fil0 str1" d="M9049 7124c-86,261 -444,448 -347,677 317,-99 429,-414 347,-677z"/>
   <path class="fil0 str1" d="M8660 7506c43,103 59,359 -111,435 -69,-169 15,-288 111,-435z"/>
   <path class="fil0 str1" d="M8363 8044c-18,-278 392,-196 658,-336 -82,222 -443,372 -658,336z"/>
   <path class="fil0 str1" d="M8607 7780c-113,69 -447,356 -414,487l13 -1c363,2 323,-261 401,-486z"/>
   <path class="fil0 str1" d="M6949 9146c100,6 231,-84 271,-179 27,-62 93,-213 165,-211 -273,-43 -469,102 -436,390z"/>
   <path class="fil0 str1" d="M5778 9555c163,-415 844,-719 843,-717 -57,352 -507,677 -843,717z"/>
   <path class="fil0 str1" d="M6183 9597c-363,-186 -997,-109 -1261,212 330,268 916,-97 1261,-212z"/>
  </g>
 </g>
</svg>
